<svg version="1.1" id="Layer_1" xmlns="http://www.w3.org/2000/svg" xmlns:xlink="http://www.w3.org/1999/xlink" x="0px" y="0px"
	 viewBox="0 0 96 96" style="enable-background:new 0 0 96 96;" xml:space="preserve">
<g id="XMLID_1_">
	<path id="XMLID_3_" d="M48,75.5c-15.2,0-27.5-12.3-27.5-27.5c0-7.5,3-14.6,8.4-19.8c0.9-0.9,2.3-0.8,3.1,0.1
		c0.9,0.9,0.8,2.3-0.1,3.1c-4.6,4.4-7.1,10.3-7.1,16.6c0,12.7,10.4,23.1,23.1,23.1S71.1,60.7,71.1,48c0-12-9.2-21.9-20.9-23v8.6
		c0,1.2-1,2.2-2.2,2.2c-1.2,0-2.2-1-2.2-2.2V22.7c0-1.2,1-2.2,2.2-2.2c15.2,0,27.5,12.3,27.5,27.5S63.2,75.5,48,75.5z"/>
	<path id="XMLID_4_" d="M37,35.1l13.7,9.8c1.9,1.3,2.3,3.9,1,5.8s-3.9,2.3-5.8,1c-0.4-0.3-0.7-0.6-1-1L35.1,37
		c-0.4-0.6-0.3-1.5,0.3-1.9C35.9,34.7,36.5,34.7,37,35.1z"/>
</g>
</svg>
